<svg xmlns="http://www.w3.org/2000/svg" xmlns:xlink="http://www.w3.org/1999/xlink" width="36" height="36" preserveAspectRatio="xMidYMid meet" viewBox="0 0 36 36" style="-ms-transform: rotate(360deg); -webkit-transform: rotate(360deg); transform: rotate(360deg);"><path class="clr-i-solid clr-i-solid-path-1" d="M13 9.22a5 5 0 1 1 10 0V12h2V9.22a7 7 0 1 0-14 0V12h2z" fill="#626262"/><path class="clr-i-solid clr-i-solid-path-2" d="M25 12v3.1a1 1 0 1 1-2 0V12H13v3.1a1 1 0 0 1-2 0V12H4v20a2 2 0 0 0 2 2h24a2 2 0 0 0 2-2V12z" fill="#626262"/><rect x="0" y="0" width="36" height="36" fill="rgba(0, 0, 0, 0)" /></svg>